<svg xmlns="http://www.w3.org/2000/svg" xmlns:xlink="http://www.w3.org/1999/xlink" width="1189.861" height="1428" viewBox="0 0 1189.861 1428">
  <defs>
    <clipPath id="clip-path">
      <rect width="1189.861" height="1428" fill="none"/>
    </clipPath>
  </defs>
  <g id="Repeat_Grid_1" data-name="Repeat Grid 1" opacity="0.5" clip-path="url(#clip-path)">
    <g transform="translate(-693.402 -246.052)">
      <path id="Path_5" data-name="Path 5" d="M3937,245.016S3094.034,475.171,2711.246,1077.67" transform="translate(-2017 2)" fill="none" stroke="#e84545" stroke-width="2"/>
    </g>
    <g transform="translate(-693.402 -225.052)">
      <path id="Path_5-2" data-name="Path 5" d="M3937,245.016S3094.034,475.171,2711.246,1077.67" transform="translate(-2017 2)" fill="none" stroke="#e84545" stroke-width="2"/>
    </g>
    <g transform="translate(-693.402 -204.052)">
      <path id="Path_5-3" data-name="Path 5" d="M3937,245.016S3094.034,475.171,2711.246,1077.67" transform="translate(-2017 2)" fill="none" stroke="#e84545" stroke-width="2"/>
    </g>
    <g transform="translate(-693.402 -183.052)">
      <path id="Path_5-4" data-name="Path 5" d="M3937,245.016S3094.034,475.171,2711.246,1077.67" transform="translate(-2017 2)" fill="none" stroke="#e84545" stroke-width="2"/>
    </g>
    <g transform="translate(-693.402 -162.052)">
      <path id="Path_5-5" data-name="Path 5" d="M3937,245.016S3094.034,475.171,2711.246,1077.67" transform="translate(-2017 2)" fill="none" stroke="#e84545" stroke-width="2"/>
    </g>
    <g transform="translate(-693.402 -141.052)">
      <path id="Path_5-6" data-name="Path 5" d="M3937,245.016S3094.034,475.171,2711.246,1077.67" transform="translate(-2017 2)" fill="none" stroke="#e84545" stroke-width="2"/>
    </g>
    <g transform="translate(-693.402 -120.052)">
      <path id="Path_5-7" data-name="Path 5" d="M3937,245.016S3094.034,475.171,2711.246,1077.67" transform="translate(-2017 2)" fill="none" stroke="#e84545" stroke-width="2"/>
    </g>
    <g transform="translate(-693.402 -99.052)">
      <path id="Path_5-8" data-name="Path 5" d="M3937,245.016S3094.034,475.171,2711.246,1077.67" transform="translate(-2017 2)" fill="none" stroke="#e84545" stroke-width="2"/>
    </g>
    <g transform="translate(-693.402 -78.052)">
      <path id="Path_5-9" data-name="Path 5" d="M3937,245.016S3094.034,475.171,2711.246,1077.67" transform="translate(-2017 2)" fill="none" stroke="#e84545" stroke-width="2"/>
    </g>
    <g transform="translate(-693.402 -57.052)">
      <path id="Path_5-10" data-name="Path 5" d="M3937,245.016S3094.034,475.171,2711.246,1077.67" transform="translate(-2017 2)" fill="none" stroke="#e84545" stroke-width="2"/>
    </g>
    <g transform="translate(-693.402 -36.052)">
      <path id="Path_5-11" data-name="Path 5" d="M3937,245.016S3094.034,475.171,2711.246,1077.67" transform="translate(-2017 2)" fill="none" stroke="#e84545" stroke-width="2"/>
    </g>
    <g transform="translate(-693.402 -15.052)">
      <path id="Path_5-12" data-name="Path 5" d="M3937,245.016S3094.034,475.171,2711.246,1077.67" transform="translate(-2017 2)" fill="none" stroke="#e84545" stroke-width="2"/>
    </g>
    <g transform="translate(-693.402 5.948)">
      <path id="Path_5-13" data-name="Path 5" d="M3937,245.016S3094.034,475.171,2711.246,1077.67" transform="translate(-2017 2)" fill="none" stroke="#e84545" stroke-width="2"/>
    </g>
    <g transform="translate(-693.402 26.948)">
      <path id="Path_5-14" data-name="Path 5" d="M3937,245.016S3094.034,475.171,2711.246,1077.67" transform="translate(-2017 2)" fill="none" stroke="#e84545" stroke-width="2"/>
    </g>
    <g transform="translate(-693.402 47.948)">
      <path id="Path_5-15" data-name="Path 5" d="M3937,245.016S3094.034,475.171,2711.246,1077.67" transform="translate(-2017 2)" fill="none" stroke="#e84545" stroke-width="2"/>
    </g>
    <g transform="translate(-693.402 68.948)">
      <path id="Path_5-16" data-name="Path 5" d="M3937,245.016S3094.034,475.171,2711.246,1077.67" transform="translate(-2017 2)" fill="none" stroke="#e84545" stroke-width="2"/>
    </g>
    <g transform="translate(-693.402 89.948)">
      <path id="Path_5-17" data-name="Path 5" d="M3937,245.016S3094.034,475.171,2711.246,1077.67" transform="translate(-2017 2)" fill="none" stroke="#e84545" stroke-width="2"/>
    </g>
    <g transform="translate(-693.402 110.948)">
      <path id="Path_5-18" data-name="Path 5" d="M3937,245.016S3094.034,475.171,2711.246,1077.67" transform="translate(-2017 2)" fill="none" stroke="#e84545" stroke-width="2"/>
    </g>
    <g transform="translate(-693.402 131.948)">
      <path id="Path_5-19" data-name="Path 5" d="M3937,245.016S3094.034,475.171,2711.246,1077.67" transform="translate(-2017 2)" fill="none" stroke="#e84545" stroke-width="2"/>
    </g>
    <g transform="translate(-693.402 152.948)">
      <path id="Path_5-20" data-name="Path 5" d="M3937,245.016S3094.034,475.171,2711.246,1077.67" transform="translate(-2017 2)" fill="none" stroke="#e84545" stroke-width="2"/>
    </g>
    <g transform="translate(-693.402 173.948)">
      <path id="Path_5-21" data-name="Path 5" d="M3937,245.016S3094.034,475.171,2711.246,1077.67" transform="translate(-2017 2)" fill="none" stroke="#e84545" stroke-width="2"/>
    </g>
    <g transform="translate(-693.402 194.948)">
      <path id="Path_5-22" data-name="Path 5" d="M3937,245.016S3094.034,475.171,2711.246,1077.67" transform="translate(-2017 2)" fill="none" stroke="#e84545" stroke-width="2"/>
    </g>
    <g transform="translate(-693.402 215.948)">
      <path id="Path_5-23" data-name="Path 5" d="M3937,245.016S3094.034,475.171,2711.246,1077.67" transform="translate(-2017 2)" fill="none" stroke="#e84545" stroke-width="2"/>
    </g>
    <g transform="translate(-693.402 236.948)">
      <path id="Path_5-24" data-name="Path 5" d="M3937,245.016S3094.034,475.171,2711.246,1077.67" transform="translate(-2017 2)" fill="none" stroke="#e84545" stroke-width="2"/>
    </g>
    <g transform="translate(-693.402 257.948)">
      <path id="Path_5-25" data-name="Path 5" d="M3937,245.016S3094.034,475.171,2711.246,1077.67" transform="translate(-2017 2)" fill="none" stroke="#e84545" stroke-width="2"/>
    </g>
    <g transform="translate(-693.402 278.948)">
      <path id="Path_5-26" data-name="Path 5" d="M3937,245.016S3094.034,475.171,2711.246,1077.67" transform="translate(-2017 2)" fill="none" stroke="#e84545" stroke-width="2"/>
    </g>
    <g transform="translate(-693.402 299.948)">
      <path id="Path_5-27" data-name="Path 5" d="M3937,245.016S3094.034,475.171,2711.246,1077.67" transform="translate(-2017 2)" fill="none" stroke="#e84545" stroke-width="2"/>
    </g>
    <g transform="translate(-693.402 320.948)">
      <path id="Path_5-28" data-name="Path 5" d="M3937,245.016S3094.034,475.171,2711.246,1077.67" transform="translate(-2017 2)" fill="none" stroke="#e84545" stroke-width="2"/>
    </g>
    <g transform="translate(-693.402 341.948)">
      <path id="Path_5-29" data-name="Path 5" d="M3937,245.016S3094.034,475.171,2711.246,1077.67" transform="translate(-2017 2)" fill="none" stroke="#e84545" stroke-width="2"/>
    </g>
    <g transform="translate(-693.402 362.948)">
      <path id="Path_5-30" data-name="Path 5" d="M3937,245.016S3094.034,475.171,2711.246,1077.67" transform="translate(-2017 2)" fill="none" stroke="#e84545" stroke-width="2"/>
    </g>
    <g transform="translate(-693.402 383.948)">
      <path id="Path_5-31" data-name="Path 5" d="M3937,245.016S3094.034,475.171,2711.246,1077.67" transform="translate(-2017 2)" fill="none" stroke="#e84545" stroke-width="2"/>
    </g>
    <g transform="translate(-693.402 404.948)">
      <path id="Path_5-32" data-name="Path 5" d="M3937,245.016S3094.034,475.171,2711.246,1077.67" transform="translate(-2017 2)" fill="none" stroke="#e84545" stroke-width="2"/>
    </g>
    <g transform="translate(-693.402 425.948)">
      <path id="Path_5-33" data-name="Path 5" d="M3937,245.016S3094.034,475.171,2711.246,1077.67" transform="translate(-2017 2)" fill="none" stroke="#e84545" stroke-width="2"/>
    </g>
    <g transform="translate(-693.402 446.948)">
      <path id="Path_5-34" data-name="Path 5" d="M3937,245.016S3094.034,475.171,2711.246,1077.67" transform="translate(-2017 2)" fill="none" stroke="#e84545" stroke-width="2"/>
    </g>
    <g transform="translate(-693.402 467.948)">
      <path id="Path_5-35" data-name="Path 5" d="M3937,245.016S3094.034,475.171,2711.246,1077.67" transform="translate(-2017 2)" fill="none" stroke="#e84545" stroke-width="2"/>
    </g>
    <g transform="translate(-693.402 488.948)">
      <path id="Path_5-36" data-name="Path 5" d="M3937,245.016S3094.034,475.171,2711.246,1077.67" transform="translate(-2017 2)" fill="none" stroke="#e84545" stroke-width="2"/>
    </g>
    <g transform="translate(-693.402 509.948)">
      <path id="Path_5-37" data-name="Path 5" d="M3937,245.016S3094.034,475.171,2711.246,1077.67" transform="translate(-2017 2)" fill="none" stroke="#e84545" stroke-width="2"/>
    </g>
    <g transform="translate(-693.402 530.948)">
      <path id="Path_5-38" data-name="Path 5" d="M3937,245.016S3094.034,475.171,2711.246,1077.67" transform="translate(-2017 2)" fill="none" stroke="#e84545" stroke-width="2"/>
    </g>
    <g transform="translate(-693.402 551.948)">
      <path id="Path_5-39" data-name="Path 5" d="M3937,245.016S3094.034,475.171,2711.246,1077.67" transform="translate(-2017 2)" fill="none" stroke="#e84545" stroke-width="2"/>
    </g>
    <g transform="translate(-693.402 572.948)">
      <path id="Path_5-40" data-name="Path 5" d="M3937,245.016S3094.034,475.171,2711.246,1077.67" transform="translate(-2017 2)" fill="none" stroke="#e84545" stroke-width="2"/>
    </g>
    <g transform="translate(-693.402 593.948)">
      <path id="Path_5-41" data-name="Path 5" d="M3937,245.016S3094.034,475.171,2711.246,1077.67" transform="translate(-2017 2)" fill="none" stroke="#e84545" stroke-width="2"/>
    </g>
    <g transform="translate(-693.402 614.948)">
      <path id="Path_5-42" data-name="Path 5" d="M3937,245.016S3094.034,475.171,2711.246,1077.67" transform="translate(-2017 2)" fill="none" stroke="#e84545" stroke-width="2"/>
    </g>
    <g transform="translate(-693.402 635.948)">
      <path id="Path_5-43" data-name="Path 5" d="M3937,245.016S3094.034,475.171,2711.246,1077.67" transform="translate(-2017 2)" fill="none" stroke="#e84545" stroke-width="2"/>
    </g>
    <g transform="translate(-693.402 656.948)">
      <path id="Path_5-44" data-name="Path 5" d="M3937,245.016S3094.034,475.171,2711.246,1077.67" transform="translate(-2017 2)" fill="none" stroke="#e84545" stroke-width="2"/>
    </g>
    <g transform="translate(-693.402 677.948)">
      <path id="Path_5-45" data-name="Path 5" d="M3937,245.016S3094.034,475.171,2711.246,1077.67" transform="translate(-2017 2)" fill="none" stroke="#e84545" stroke-width="2"/>
    </g>
    <g transform="translate(-693.402 698.948)">
      <path id="Path_5-46" data-name="Path 5" d="M3937,245.016S3094.034,475.171,2711.246,1077.67" transform="translate(-2017 2)" fill="none" stroke="#e84545" stroke-width="2"/>
    </g>
    <g transform="translate(-693.402 719.948)">
      <path id="Path_5-47" data-name="Path 5" d="M3937,245.016S3094.034,475.171,2711.246,1077.67" transform="translate(-2017 2)" fill="none" stroke="#e84545" stroke-width="2"/>
    </g>
    <g transform="translate(-693.402 740.948)">
      <path id="Path_5-48" data-name="Path 5" d="M3937,245.016S3094.034,475.171,2711.246,1077.67" transform="translate(-2017 2)" fill="none" stroke="#e84545" stroke-width="2"/>
    </g>
    <g transform="translate(-693.402 761.948)">
      <path id="Path_5-49" data-name="Path 5" d="M3937,245.016S3094.034,475.171,2711.246,1077.67" transform="translate(-2017 2)" fill="none" stroke="#e84545" stroke-width="2"/>
    </g>
    <g transform="translate(-693.402 782.948)">
      <path id="Path_5-50" data-name="Path 5" d="M3937,245.016S3094.034,475.171,2711.246,1077.67" transform="translate(-2017 2)" fill="none" stroke="#e84545" stroke-width="2"/>
    </g>
    <g transform="translate(-693.402 803.948)">
      <path id="Path_5-51" data-name="Path 5" d="M3937,245.016S3094.034,475.171,2711.246,1077.67" transform="translate(-2017 2)" fill="none" stroke="#e84545" stroke-width="2"/>
    </g>
    <g transform="translate(-693.402 824.948)">
      <path id="Path_5-52" data-name="Path 5" d="M3937,245.016S3094.034,475.171,2711.246,1077.67" transform="translate(-2017 2)" fill="none" stroke="#e84545" stroke-width="2"/>
    </g>
    <g transform="translate(-693.402 845.948)">
      <path id="Path_5-53" data-name="Path 5" d="M3937,245.016S3094.034,475.171,2711.246,1077.67" transform="translate(-2017 2)" fill="none" stroke="#e84545" stroke-width="2"/>
    </g>
    <g transform="translate(-693.402 866.948)">
      <path id="Path_5-54" data-name="Path 5" d="M3937,245.016S3094.034,475.171,2711.246,1077.67" transform="translate(-2017 2)" fill="none" stroke="#e84545" stroke-width="2"/>
    </g>
    <g transform="translate(-693.402 887.948)">
      <path id="Path_5-55" data-name="Path 5" d="M3937,245.016S3094.034,475.171,2711.246,1077.67" transform="translate(-2017 2)" fill="none" stroke="#e84545" stroke-width="2"/>
    </g>
    <g transform="translate(-693.402 908.948)">
      <path id="Path_5-56" data-name="Path 5" d="M3937,245.016S3094.034,475.171,2711.246,1077.67" transform="translate(-2017 2)" fill="none" stroke="#e84545" stroke-width="2"/>
    </g>
    <g transform="translate(-693.402 929.948)">
      <path id="Path_5-57" data-name="Path 5" d="M3937,245.016S3094.034,475.171,2711.246,1077.67" transform="translate(-2017 2)" fill="none" stroke="#e84545" stroke-width="2"/>
    </g>
    <g transform="translate(-693.402 950.948)">
      <path id="Path_5-58" data-name="Path 5" d="M3937,245.016S3094.034,475.171,2711.246,1077.67" transform="translate(-2017 2)" fill="none" stroke="#e84545" stroke-width="2"/>
    </g>
    <g transform="translate(-693.402 971.948)">
      <path id="Path_5-59" data-name="Path 5" d="M3937,245.016S3094.034,475.171,2711.246,1077.67" transform="translate(-2017 2)" fill="none" stroke="#e84545" stroke-width="2"/>
    </g>
    <g transform="translate(-693.402 992.948)">
      <path id="Path_5-60" data-name="Path 5" d="M3937,245.016S3094.034,475.171,2711.246,1077.67" transform="translate(-2017 2)" fill="none" stroke="#e84545" stroke-width="2"/>
    </g>
    <g transform="translate(-693.402 1013.948)">
      <path id="Path_5-61" data-name="Path 5" d="M3937,245.016S3094.034,475.171,2711.246,1077.67" transform="translate(-2017 2)" fill="none" stroke="#e84545" stroke-width="2"/>
    </g>
    <g transform="translate(-693.402 1034.948)">
      <path id="Path_5-62" data-name="Path 5" d="M3937,245.016S3094.034,475.171,2711.246,1077.67" transform="translate(-2017 2)" fill="none" stroke="#e84545" stroke-width="2"/>
    </g>
    <g transform="translate(-693.402 1055.948)">
      <path id="Path_5-63" data-name="Path 5" d="M3937,245.016S3094.034,475.171,2711.246,1077.67" transform="translate(-2017 2)" fill="none" stroke="#e84545" stroke-width="2"/>
    </g>
    <g transform="translate(-693.402 1076.948)">
      <path id="Path_5-64" data-name="Path 5" d="M3937,245.016S3094.034,475.171,2711.246,1077.67" transform="translate(-2017 2)" fill="none" stroke="#e84545" stroke-width="2"/>
    </g>
    <g transform="translate(-693.402 1097.948)">
      <path id="Path_5-65" data-name="Path 5" d="M3937,245.016S3094.034,475.171,2711.246,1077.67" transform="translate(-2017 2)" fill="none" stroke="#e84545" stroke-width="2"/>
    </g>
    <g transform="translate(-693.402 1118.948)">
      <path id="Path_5-66" data-name="Path 5" d="M3937,245.016S3094.034,475.171,2711.246,1077.67" transform="translate(-2017 2)" fill="none" stroke="#e84545" stroke-width="2"/>
    </g>
    <g transform="translate(-693.402 1139.948)">
      <path id="Path_5-67" data-name="Path 5" d="M3937,245.016S3094.034,475.171,2711.246,1077.67" transform="translate(-2017 2)" fill="none" stroke="#e84545" stroke-width="2"/>
    </g>
    <g transform="translate(-693.402 1160.948)">
      <path id="Path_5-68" data-name="Path 5" d="M3937,245.016S3094.034,475.171,2711.246,1077.67" transform="translate(-2017 2)" fill="none" stroke="#e84545" stroke-width="2"/>
    </g>
  </g>
</svg>
