<svg xmlns="http://www.w3.org/2000/svg" width="32" height="32" viewBox="0 0 32 32">
  <path id="Logomark-Transparent_White" data-name="Logomark-Transparent White" d="M16,0A16,16,0,1,0,32,16,16,16,0,0,0,16,0ZM7.894,16.538l.067-.109,4.163-6.512a.143.143,0,0,1,.25.019c.694,1.558,1.3,3.5,1.014,4.7a7.237,7.237,0,0,1-.819,1.789c-.048.09-.1.179-.157.266a.141.141,0,0,1-.118.061H8.016A.141.141,0,0,1,7.894,16.538Zm18.55,2.24a.145.145,0,0,1-.086.134A5.122,5.122,0,0,0,24.474,20.2c-1.171,1.629-2.064,3.958-4.064,3.958H12.07a5.358,5.358,0,0,1-5.35-5.37v-.1a.143.143,0,0,1,.144-.141H11.51a.159.159,0,0,1,.154.176,1.564,1.564,0,0,0,.166.893,1.633,1.633,0,0,0,1.466.909h2.3v-1.8H13.322a.147.147,0,0,1-.118-.23c.026-.038.051-.077.083-.122.214-.307.522-.781.829-1.322a10.624,10.624,0,0,0,.573-1.146c.032-.07.058-.144.086-.214.045-.125.09-.243.122-.358.032-.1.061-.2.086-.3a4.671,4.671,0,0,0,.109-1.05c0-.144-.006-.294-.019-.435-.006-.157-.026-.314-.045-.47-.013-.138-.038-.275-.064-.416-.035-.208-.08-.416-.131-.624l-.019-.08c-.038-.144-.074-.278-.118-.422-.131-.448-.278-.886-.438-1.3-.058-.163-.122-.32-.189-.474-.1-.237-.2-.451-.285-.653-.048-.093-.086-.176-.125-.262s-.09-.192-.138-.285c-.032-.07-.07-.138-.1-.2l-.282-.518a.092.092,0,0,1,.1-.134L15,8.2h.013l.23.067.256.07.093.026V7.315A.909.909,0,0,1,16.5,6.4a.881.881,0,0,1,.637.269.92.92,0,0,1,.266.646V8.867l.189.051a.264.264,0,0,1,.042.022c.045.032.112.083.2.147.067.051.138.115.221.182.17.138.374.314.6.515.058.051.115.1.17.157.285.266.6.576.912.922.086.1.17.2.256.3s.176.208.253.31c.106.138.214.282.314.432.045.07.1.144.141.214a6.7,6.7,0,0,1,.342.579c.045.09.09.189.128.285a3.962,3.962,0,0,1,.269.8.867.867,0,0,1,.038.176v.013a1.479,1.479,0,0,1,.032.246,2.743,2.743,0,0,1-.045.822c-.026.115-.058.224-.1.342s-.08.227-.131.339a4.6,4.6,0,0,1-.352.669c-.045.08-.1.163-.15.243s-.118.163-.17.24c-.074.1-.15.2-.23.294a3.123,3.123,0,0,1-.221.278c-.109.131-.214.253-.326.371a2.776,2.776,0,0,1-.208.227c-.07.08-.144.15-.208.214-.112.112-.2.2-.278.269l-.182.163a.135.135,0,0,1-.1.038H17.4v1.8h1.763a1.64,1.64,0,0,0,1.072-.4,13.017,13.017,0,0,0,1.088-1.069.126.126,0,0,1,.067-.042l4.867-1.408a.142.142,0,0,1,.182.138v1.03Z" fill="#fff"/>
</svg>
