<svg xmlns="http://www.w3.org/2000/svg" width="443.23" height="396.313" viewBox="0 0 443.23 396.313">
  <g id="Creative_thinking-rafiki" data-name="Creative thinking-rafiki" transform="translate(-51.29 -64.268)">
    <g id="freepik--background-complete--inject-2" transform="translate(0 55)">
      <rect id="Rectangle_7" data-name="Rectangle 7" width="8.69" height="0.25" transform="translate(355.353 383.081)" fill="#ebebeb"/>
      <rect id="Rectangle_13" data-name="Rectangle 13" width="75.81" height="81.59" transform="translate(281.156 272.331)" fill="#e6e6e6"/>
      <rect id="Rectangle_14" data-name="Rectangle 14" width="9.53" height="98.25" transform="translate(362.936 266.261)" fill="#e6e6e6"/>
      <rect id="Rectangle_15" data-name="Rectangle 15" width="6.21" height="30.49" transform="translate(290.258 270.117)" fill="#fafafa"/>
      <rect id="Rectangle_16" data-name="Rectangle 16" width="6.21" height="30.49" transform="translate(318.627 270.117)" fill="#f5f5f5"/>
      <rect id="Rectangle_17" data-name="Rectangle 17" width="6.21" height="28.35" transform="translate(297.097 272.315)" fill="#f5f5f5"/>
      <rect id="Rectangle_18" data-name="Rectangle 18" width="6.21" height="28.35" transform="translate(311.788 272.315)" fill="#fafafa"/>
      <rect id="Rectangle_19" data-name="Rectangle 19" width="4.01" height="30.49" transform="translate(307.236 270.117)" fill="#ebebeb"/>
      <rect id="Rectangle_20" data-name="Rectangle 20" width="3.11" height="28.35" transform="translate(303.773 272.315)" fill="#fafafa"/>
      <rect id="Rectangle_21" data-name="Rectangle 21" width="6.21" height="30.49" transform="translate(325.466 270.117)" fill="#ebebeb"/>
      <rect id="Rectangle_22" data-name="Rectangle 22" width="6.21" height="28.35" transform="translate(332.304 272.315)" fill="#e6e6e6"/>
      <rect id="Rectangle_23" data-name="Rectangle 23" width="6.21" height="28.35" transform="translate(346.984 272.315)" fill="#e6e6e6"/>
      <rect id="Rectangle_24" data-name="Rectangle 24" width="4.01" height="30.49" transform="translate(342.428 270.117)" fill="#fafafa"/>
      <rect id="Rectangle_25" data-name="Rectangle 25" width="3.11" height="28.35" transform="translate(338.949 272.315)" fill="#ebebeb"/>
      <rect id="Rectangle_26" data-name="Rectangle 26" width="3.11" height="29.77" transform="translate(353.62 270.856)" fill="#fafafa"/>
      <rect id="Rectangle_27" data-name="Rectangle 27" width="6.21" height="30.49" transform="translate(356.608 350.121) rotate(180)" fill="#fafafa"/>
      <rect id="Rectangle_28" data-name="Rectangle 28" width="6.21" height="30.49" transform="translate(328.262 350.121) rotate(180)" fill="#fafafa"/>
      <rect id="Rectangle_29" data-name="Rectangle 29" width="6.21" height="28.35" transform="translate(349.769 350.111) rotate(180)" fill="#f0f0f0"/>
      <rect id="Rectangle_30" data-name="Rectangle 30" width="6.21" height="28.35" transform="translate(335.101 350.111) rotate(180)" fill="#ebebeb"/>
      <rect id="Rectangle_31" data-name="Rectangle 31" width="4.01" height="30.49" transform="translate(339.591 350.121) rotate(180)" fill="#fafafa"/>
      <rect id="Rectangle_32" data-name="Rectangle 32" width="3.11" height="28.35" transform="translate(343.049 350.111) rotate(180)" fill="#f5f5f5"/>
      <rect id="Rectangle_33" data-name="Rectangle 33" width="6.21" height="30.49" transform="translate(321.412 350.121) rotate(180)" fill="#ebebeb"/>
      <rect id="Rectangle_34" data-name="Rectangle 34" width="6.21" height="28.35" transform="translate(314.573 350.111) rotate(180)" fill="#f5f5f5"/>
      <rect id="Rectangle_35" data-name="Rectangle 35" width="6.21" height="28.35" transform="translate(299.893 350.111) rotate(180)" fill="#e6e6e6"/>
      <rect id="Rectangle_36" data-name="Rectangle 36" width="4.01" height="30.49" transform="translate(304.41 350.121) rotate(180)" fill="#fafafa"/>
      <rect id="Rectangle_37" data-name="Rectangle 37" width="4.01" height="30.49" transform="translate(289.736 350.121) rotate(180)" fill="#fafafa"/>
      <rect id="Rectangle_38" data-name="Rectangle 38" width="3.11" height="28.35" transform="translate(307.873 350.111) rotate(180)" fill="#ebebeb"/>
      <rect id="Rectangle_39" data-name="Rectangle 39" width="3.11" height="29.77" transform="translate(293.202 350.111) rotate(180)" fill="#f0f0f0"/>
      <path id="Path_8" data-name="Path 8" d="M326.93,284.39H249.11v92.75h75.28v5.51h5.08V284.39Zm-2.54,83.86H253.9V332.49h70.49Zm0-40.84H253.9V293.29h70.49Z" transform="translate(29.681 -18.129)" fill="#f0f0f0"/>
      <rect id="Rectangle_40" data-name="Rectangle 40" width="75.81" height="81.59" transform="translate(272.075 353.931) rotate(180)" fill="#e6e6e6"/>
      <rect id="Rectangle_41" data-name="Rectangle 41" width="9.53" height="6.5" transform="translate(206.216 364.521) rotate(180)" fill="#e6e6e6"/>
      <rect id="Rectangle_42" data-name="Rectangle 42" width="6.21" height="30.49" transform="translate(273.397 300.607) rotate(180)" fill="#fafafa"/>
      <rect id="Rectangle_43" data-name="Rectangle 43" width="6.21" height="30.49" transform="translate(245.04 300.607) rotate(180)" fill="#f5f5f5"/>
      <rect id="Rectangle_44" data-name="Rectangle 44" width="6.21" height="28.35" transform="translate(266.547 300.665) rotate(180)" fill="#f5f5f5"/>
      <rect id="Rectangle_45" data-name="Rectangle 45" width="6.21" height="28.35" transform="translate(251.879 300.665) rotate(180)" fill="#fafafa"/>
      <rect id="Rectangle_46" data-name="Rectangle 46" width="4.01" height="30.49" transform="translate(256.414 300.607) rotate(180)" fill="#ebebeb"/>
      <rect id="Rectangle_47" data-name="Rectangle 47" width="3.11" height="28.35" transform="translate(259.886 300.665) rotate(180)" fill="#fafafa"/>
      <rect id="Rectangle_48" data-name="Rectangle 48" width="6.21" height="30.49" transform="translate(242.694 300.607) rotate(180)" fill="#ebebeb"/>
      <rect id="Rectangle_49" data-name="Rectangle 49" width="6.21" height="28.35" transform="translate(235.855 300.665) rotate(180)" fill="#e6e6e6"/>
      <rect id="Rectangle_50" data-name="Rectangle 50" width="6.21" height="28.35" transform="translate(221.186 300.665) rotate(180)" fill="#e6e6e6"/>
      <rect id="Rectangle_51" data-name="Rectangle 51" width="4.01" height="30.49" transform="translate(225.735 300.607) rotate(180)" fill="#fafafa"/>
      <rect id="Rectangle_52" data-name="Rectangle 52" width="3.11" height="28.35" transform="translate(229.212 300.665) rotate(180)" fill="#ebebeb"/>
      <rect id="Rectangle_53" data-name="Rectangle 53" width="3.11" height="29.77" transform="translate(214.529 300.626) rotate(180)" fill="#f5f5f5"/>
      <rect id="Rectangle_54" data-name="Rectangle 54" width="6.21" height="30.49" transform="translate(208.336 319.621)" fill="#fafafa"/>
      <rect id="Rectangle_55" data-name="Rectangle 55" width="6.21" height="30.49" transform="translate(236.704 319.621)" fill="#fafafa"/>
      <rect id="Rectangle_56" data-name="Rectangle 56" width="6.21" height="28.35" transform="translate(215.175 321.771)" fill="#f5f5f5"/>
      <rect id="Rectangle_57" data-name="Rectangle 57" width="6.21" height="28.35" transform="translate(229.854 321.771)" fill="#ebebeb"/>
      <rect id="Rectangle_58" data-name="Rectangle 58" width="4.01" height="30.49" transform="translate(225.347 319.621)" fill="#fafafa"/>
      <rect id="Rectangle_59" data-name="Rectangle 59" width="3.11" height="28.35" transform="translate(221.886 321.771)" fill="#f5f5f5"/>
      <rect id="Rectangle_60" data-name="Rectangle 60" width="6.21" height="30.49" transform="translate(239.028 319.621)" fill="#ebebeb"/>
      <rect id="Rectangle_61" data-name="Rectangle 61" width="6.21" height="28.35" transform="translate(245.867 321.771)" fill="#f5f5f5"/>
      <rect id="Rectangle_62" data-name="Rectangle 62" width="6.21" height="28.35" transform="translate(260.547 321.771)" fill="#e6e6e6"/>
      <rect id="Rectangle_63" data-name="Rectangle 63" width="4.01" height="30.49" transform="translate(256.026 319.621)" fill="#fafafa"/>
      <rect id="Rectangle_64" data-name="Rectangle 64" width="4.01" height="30.49" transform="translate(269.797 319.621)" fill="#fafafa"/>
      <rect id="Rectangle_65" data-name="Rectangle 65" width="3.11" height="28.35" transform="translate(252.561 321.771)" fill="#ebebeb"/>
      <rect id="Rectangle_66" data-name="Rectangle 66" width="3.11" height="29.77" transform="translate(267.243 320.351)" fill="#ebebeb"/>
      <path id="Path_9" data-name="Path 9" d="M173.42,284.39v98.26h5.08v-5.51h75.28V284.39Zm5.08,48.1H249v35.76H178.5Zm0-39.2H249v34.12H178.5Z" transform="translate(20.663 -18.129)" fill="#f0f0f0"/>
      <rect id="Rectangle_67" data-name="Rectangle 67" width="6.18" height="196.12" transform="translate(453.78 168.391)" fill="#ebebeb"/>
      <path id="Path_10" data-name="Path 10" d="M388.97,382.65h-4.44l7.75-191.13h4.43Z" transform="translate(39.413 -18.129)" fill="#ebebeb"/>
      <path id="Path_11" data-name="Path 11" d="M426.53,382.65h4.43l-7.74-191.13h-4.44Z" transform="translate(50 -18.129)" fill="#ebebeb"/>
      <path id="Path_12" data-name="Path 12" d="M436.1,276.92H378.18l5.58-79.76h57.92Z" transform="translate(50 -35.347)" fill="#f0f0f0"/>
      <path id="Path_13" data-name="Path 13" d="M383.2,205.07l8.46-7.91h-7.9Z" transform="translate(38.98 -39.518)" fill="#e6e6e6"/>
      <path id="Path_14" data-name="Path 14" d="M433.77,197.16l7.36,7.91.55-7.91Z" transform="translate(50 -39.518)" fill="#e6e6e6"/>
      <path id="Path_15" data-name="Path 15" d="M378.18,276.92h7.91l-7.36-7.91Z" transform="translate(38.426 -31.692)" fill="#e6e6e6"/>
      <path id="Path_16" data-name="Path 16" d="M436.66,269.01l-8.46,7.91h7.9Z" transform="translate(50 -31.692)" fill="#e6e6e6"/>
      <path id="Path_17" data-name="Path 17" d="M400,258s-16.94-17.41-10.94-23.48S400,258,400,258Z" transform="translate(39.749 -34.548)" fill="#f5f5f5"/>
      <path id="Path_18" data-name="Path 18" d="M404.2,250.13s-3.29-38.7,5.64-37.7S404.2,250.13,404.2,250.13Z" transform="translate(50 -36.201)" fill="#fafafa"/>
      <path id="Path_19" data-name="Path 19" d="M410.26,254.33S421,233,429.78,237,410.26,254.33,410.26,254.33Z" transform="translate(50 -34.636)" fill="#fafafa"/>
      <rect id="Rectangle_68" data-name="Rectangle 68" width="74.03" height="10.51" transform="translate(420.49 245.233)" fill="#e6e6e6"/>
      <rect id="Rectangle_69" data-name="Rectangle 69" width="46.06" height="5.01" transform="translate(434.63 284.187)" fill="#f0f0f0"/>
      <path id="Path_20" data-name="Path 20" d="M94.38,350.14s-7.28-34.39,6-53-12-.22-14.89,17.22c0,0-4.35-31.18,8.51-53.12s-11.2-3.93-13.24,18.68c0,0-3.94-27.82,2-43.46s-4.37-5.58-8.32,4.22,1.23,34.07,1.23,34.07-10.31-44.87-20.07-41.3,14.59,33,18,48.27c0,0-11.51-20.59-20.24-16.3S66.8,271.81,77,302.5l3.58,14.39S70,296.58,63.05,303,83.59,320.46,90,351.24Z" transform="translate(0 -18.129)" fill="#ebebeb"/>
      <path id="Path_21" data-name="Path 21" d="M63.86,360.65h63v11a11,11,0,0,1-11,11h-41a11,11,0,0,1-11-11Z" transform="translate(0 -18.129)" fill="#ebebeb"/>
      <rect id="Rectangle_70" data-name="Rectangle 70" width="79.5" height="19.7" rx="4.21" transform="translate(55.61 329.821)" fill="#f5f5f5"/>
      <path id="Path_22" data-name="Path 22" d="M93,352.12s-1.53-43.36-23-61.73,14.29-3.82,23,16.2c0,0-4.08-38.65-26-61.09s12.25-8,21.43,18.43c0,0-3.57-34.5-15.3-51.47s3.57-8,11.22,2.58S93,256.21,93,256.21s-1-56.82,11.74-55.45S97,244.6,97.54,263.93c0,0,7.66-28.09,19.39-25.56s-14.28,11.72-17.35,51.51v18.3s6.64-27.48,16.84-21.87-19.39,27-17.86,65.81Z" transform="translate(0 -18.129)" fill="#f5f5f5"/>
    </g>
    <g id="freepik--Shadow--inject-2" transform="translate(51.29 437.941)">
      <ellipse id="freepik--path--inject-2" cx="218.89" cy="11.32" rx="218.89" ry="11.32" fill="#f5f5f5"/>
    </g>
    <g id="freepik--Elements--inject-2" transform="translate(136.286 64.268)">
      <path id="Path_23" data-name="Path 23" d="M127.18,268.16l-13.71-31.8,42.42-18.29Z" transform="translate(-113.47 -64.268)" fill="#e84545"/>
      <path id="Path_24" data-name="Path 24" d="M127.18,268.16l-13.71-31.8,42.42-18.29Z" transform="translate(-113.47 -64.268)" opacity="0.2"/>
      <path id="Path_25" data-name="Path 25" d="M190.34,274a17.392,17.392,0,1,1-31.9-13.87Z" transform="translate(-113.47 -64.268)" fill="#e84545"/>
      <path id="Path_26" data-name="Path 26" d="M180.13,260.85h-2.4V251a1.56,1.56,0,0,0-1.55-1.55h-7.1a4,4,0,0,1-4-3.95v-7.1a1.56,1.56,0,0,0-1.55-1.55h-7.1a4,4,0,0,1-3.95-3.95v-7.1a1.56,1.56,0,0,0-1.55-1.55h-7.1a4,4,0,0,1-3.95-4v-7.1a1.56,1.56,0,0,0-1.56-1.55h-9.88v-2.4h9.88a4,4,0,0,1,4,3.95v7.1a1.54,1.54,0,0,0,1.55,1.55H151a4,4,0,0,1,4,3.95v7.1a1.54,1.54,0,0,0,1.55,1.55h7.1a4,4,0,0,1,3.95,4v7.1a1.54,1.54,0,0,0,1.55,1.55h7.1a4,4,0,0,1,3.95,4Z" transform="translate(-113.47 -64.268)" fill="#e84545"/>
      <g id="Group_1" data-name="Group 1" transform="translate(14.97 144.932)" opacity="0.5">
        <path id="Path_27" data-name="Path 27" d="M180.13,260.85h-2.4V251a1.56,1.56,0,0,0-1.55-1.55h-7.1a4,4,0,0,1-4-3.95v-7.1a1.56,1.56,0,0,0-1.55-1.55h-7.1a4,4,0,0,1-3.95-3.95v-7.1a1.56,1.56,0,0,0-1.55-1.55h-7.1a4,4,0,0,1-3.95-4v-7.1a1.56,1.56,0,0,0-1.56-1.55h-9.88v-2.4h9.88a4,4,0,0,1,4,3.95v7.1a1.54,1.54,0,0,0,1.55,1.55H151a4,4,0,0,1,4,3.95v7.1a1.54,1.54,0,0,0,1.55,1.55h7.1a4,4,0,0,1,3.95,4v7.1a1.54,1.54,0,0,0,1.55,1.55h7.1a4,4,0,0,1,3.95,4Z" transform="translate(-128.44 -209.2)" fill="#fff"/>
      </g>
      <rect id="Rectangle_71" data-name="Rectangle 71" width="23.74" height="23.74" transform="translate(84.313 150.537) rotate(45)" fill="#e84545"/>
      <rect id="Rectangle_72" data-name="Rectangle 72" width="23.74" height="23.74" transform="translate(84.313 150.537) rotate(45)" fill="#fff" opacity="0.2"/>
      <path id="Path_28" data-name="Path 28" d="M274.84,145.33c-3.78-13.23-7-29.63-20.83-26.46-7.55,1.74-5.51-8.85-5-12.51s4.58-6.94,7.85-5.23c1.43.75,2.34,2.22,3.64,3.18,3.23,2.37,8.08.86,10.72-2.15s3.67-7.06,4.74-10.92,2.4-7.88,5.42-10.51a10.93,10.93,0,0,1,17,13.1c5.49-.54,9.85-4.84,13.09-9.31s6-9.49,10.43-12.76,11.4-4.08,15.1,0c3.95,4.36,2,11.58-1.92,16s-9.36,7.24-13.3,11.65-6.06,11.51-2.24,16c2.91,3.42,7.9,3.85,12.25,5s9,3.66,10.82,7.9-.31,10.25-4.87,11c-5.2.86-8.9-4.73-11.39-9.38s-7.13-9.89-12-7.91c-5.09,2.06-4.48,9.47-2.45,14.58a82.5,82.5,0,0,0,8.81,16.5c2.37,3.44,5,8,2.57,11.39-2.75,3.74-9.1,1.44-11.44-2.56-3.46-6-3-20.25-13.23-19.18-2.67.28-4.9,3.11-7.51,3.83C286.43,147.84,276.12,149.81,274.84,145.33Z" transform="translate(-113.47 -64.268)" fill="#e84545"/>
      <path id="Path_29" data-name="Path 29" d="M274.84,145.33c-3.78-13.23-7-29.63-20.83-26.46-7.55,1.74-5.51-8.85-5-12.51s4.58-6.94,7.85-5.23c1.43.75,2.34,2.22,3.64,3.18,3.23,2.37,8.08.86,10.72-2.15s3.67-7.06,4.74-10.92,2.4-7.88,5.42-10.51a10.93,10.93,0,0,1,17,13.1c5.49-.54,9.85-4.84,13.09-9.31s6-9.49,10.43-12.76,11.4-4.08,15.1,0c3.95,4.36,2,11.58-1.92,16s-9.36,7.24-13.3,11.65-6.06,11.51-2.24,16c2.91,3.42,7.9,3.85,12.25,5s9,3.66,10.82,7.9-.31,10.25-4.87,11c-5.2.86-8.9-4.73-11.39-9.38s-7.13-9.89-12-7.91c-5.09,2.06-4.48,9.47-2.45,14.58a82.5,82.5,0,0,0,8.81,16.5c2.37,3.44,5,8,2.57,11.39-2.75,3.74-9.1,1.44-11.44-2.56-3.46-6-3-20.25-13.23-19.18-2.67.28-4.9,3.11-7.51,3.83C286.43,147.84,276.12,149.81,274.84,145.33Z" transform="translate(-113.47 -64.268)" fill="#fff" opacity="0.1"/>
      <path id="Path_30" data-name="Path 30" d="M358.63,111a3.12,3.12,0,0,0,.61,2.48,2.85,2.85,0,0,0,2.12,1.2,3.91,3.91,0,0,0,3.45-3.42,2.62,2.62,0,0,0-1.27-2.14,3.29,3.29,0,0,0-4.91,1.88Z" transform="translate(-113.47 -64.268)" fill="#e84545"/>
      <path id="Path_31" data-name="Path 31" d="M340.94,163.23a2.3,2.3,0,0,0,.46,1.83,2.06,2.06,0,0,0,1.6.94,2.45,2.45,0,0,0,1.77-.88,2.51,2.51,0,0,0,.78-1.65,1.94,1.94,0,0,0-.94-1.58,2.45,2.45,0,0,0-3.67,1.34Z" transform="translate(-113.47 -64.268)" fill="#e84545"/>
      <path id="Path_32" data-name="Path 32" d="M293.2,68.41a6.24,6.24,0,0,0,.89,4.34,4.06,4.06,0,0,0,3.08,2.1,4.64,4.64,0,0,0,3.49-2.1,6.38,6.38,0,0,0,1.52-3.89,4.84,4.84,0,0,0-1.84-3.74C297.79,63.18,293.9,64.67,293.2,68.41Z" transform="translate(-113.47 -64.268)" fill="#e84545"/>
      <path id="Path_33" data-name="Path 33" d="M342.49,79.44a6.14,6.14,0,0,0,1.23,5A5.73,5.73,0,0,0,348,86.81,7.84,7.84,0,0,0,354.85,80a5.27,5.27,0,0,0-2.53-4.28C348.8,73.47,343.45,75.17,342.49,79.44Z" transform="translate(-113.47 -64.268)" fill="#e84545"/>
      <path id="Path_34" data-name="Path 34" d="M342.49,79.44a6.14,6.14,0,0,0,1.23,5A5.73,5.73,0,0,0,348,86.81,7.84,7.84,0,0,0,354.85,80a5.27,5.27,0,0,0-2.53-4.28C348.8,73.47,343.45,75.17,342.49,79.44Z" transform="translate(-113.47 -64.268)" fill="#fff" opacity="0.1"/>
      <path id="Path_35" data-name="Path 35" d="M224.53,108.2s1.41-41.18,17-38.52S224.53,108.2,224.53,108.2Z" transform="translate(-113.47 -64.268)" fill="#e84545"/>
      <path id="Path_36" data-name="Path 36" d="M213.19,97.32S189,78.48,196.32,71.81,213.19,97.32,213.19,97.32Z" transform="translate(-113.47 -64.268)" fill="#e84545"/>
      <path id="Path_37" data-name="Path 37" d="M213.19,97.32S189,78.48,196.32,71.81,213.19,97.32,213.19,97.32Z" transform="translate(-113.47 -64.268)" fill="#fff" opacity="0.5"/>
      <path id="Path_38" data-name="Path 38" d="M202.72,178.2s10.51-23.65,19.25-18S202.72,178.2,202.72,178.2Z" transform="translate(-113.47 -64.268)" fill="#e84545"/>
      <path id="Path_39" data-name="Path 39" d="M202.72,178.2s10.51-23.65,19.25-18S202.72,178.2,202.72,178.2Z" transform="translate(-113.47 -64.268)" opacity="0.2"/>
      <path id="Path_40" data-name="Path 40" d="M156.81,180.09s-10.93-13.54-15.63-8.37S156.81,180.09,156.81,180.09Z" transform="translate(-113.47 -64.268)" fill="#e84545"/>
      <path id="Path_41" data-name="Path 41" d="M156.81,180.09s-10.93-13.54-15.63-8.37S156.81,180.09,156.81,180.09Z" transform="translate(-113.47 -64.268)" fill="#fff" opacity="0.5"/>
    </g>
    <g id="freepik--light-bulb--inject-2" transform="translate(143.941 91.577)">
      <path id="Path_42" data-name="Path 42" d="M213.45,126.61a39.684,39.684,0,1,0-78.82,9.31c1.87,15.78,15.69,25,25.11,36.55,2.92,3.58,4.36,18.09,4.36,18.09l33.42-3.95s-2-14.45,0-18.61C204,154.57,215.31,142.4,213.45,126.61Z" transform="translate(-128.457 -91.577)" fill="#e84545"/>
      <path id="Path_43" data-name="Path 43" d="M0,0H33.66V2.51a7.14,7.14,0,0,1-7.14,7.14H7.14A7.14,7.14,0,0,1,0,2.51Z" transform="matrix(0.993, -0.117, 0.117, 0.993, 35.915, 101.202)" fill="#263238"/>
      <path id="Path_44" data-name="Path 44" d="M.01,0H15.74V.73A7.14,7.14,0,0,1,8.6,7.87H7.14A7.14,7.14,0,0,1,0,.73V0Z" transform="translate(46.182 112.011) rotate(-6.73)" fill="#263238"/>
      <path id="Path_45" data-name="Path 45" d="M.01,0H15.74V.73A7.14,7.14,0,0,1,8.6,7.87H7.14A7.14,7.14,0,0,1,0,.73V0Z" transform="translate(46.182 112.011) rotate(-6.73)" fill="#fff" opacity="0.5"/>
      <path id="Path_46" data-name="Path 46" d="M213.45,126.61a39.69,39.69,0,0,0-28.33-33.46c-9.31-.9-23.47-1.31-22.77,4.59,1,8.76,20.55,2.73,25.51,7.06s-13.12,15.62-6.8,19.86,17.14-7.57,17.14-7.57-2.76,16.56,2,17.17,2.69-12.45,5.7-12.81,7.09,6.07,5.15,21.3a33.16,33.16,0,0,0,2.4-16.14Z" transform="translate(-128.457 -91.577)" fill="#e84545"/>
      <path id="Path_47" data-name="Path 47" d="M213.45,126.61a39.69,39.69,0,0,0-28.33-33.46c-9.31-.9-23.47-1.31-22.77,4.59,1,8.76,20.55,2.73,25.51,7.06s-13.12,15.62-6.8,19.86,17.14-7.57,17.14-7.57-2.76,16.56,2,17.17,2.69-12.45,5.7-12.81,7.09,6.07,5.15,21.3a33.16,33.16,0,0,0,2.4-16.14Z" transform="translate(-128.457 -91.577)" fill="#fff" opacity="0.5"/>
      <path id="Path_48" data-name="Path 48" d="M190.76,129.35S176,136.08,180.27,141.4,190.76,129.35,190.76,129.35Z" transform="translate(-128.457 -91.577)" fill="#e84545"/>
      <path id="Path_49" data-name="Path 49" d="M190.76,129.35S176,136.08,180.27,141.4,190.76,129.35,190.76,129.35Z" transform="translate(-128.457 -91.577)" fill="#fff" opacity="0.7"/>
      <path id="Path_50" data-name="Path 50" d="M147.78,93.19a50.2,50.2,0,0,0-6.09,5.29c-.33.35.2.88.53.53a49.358,49.358,0,0,1,5.93-5.17C148.54,93.55,148.15,92.9,147.78,93.19Z" transform="translate(-128.457 -91.577)" fill="#e84545"/>
      <path id="Path_51" data-name="Path 51" d="M136.08,105.49a48.53,48.53,0,0,0-7.35,31.25c.05.47.8.48.75,0a47.89,47.89,0,0,1,7.25-30.87c.26-.41-.39-.78-.65-.38Z" transform="translate(-128.457 -91.577)" fill="#e84545"/>
      <g id="Group_2" data-name="Group 2" transform="translate(35.915 97.252)" opacity="0.7">
        <path id="Path_52" data-name="Path 52" d="M0,0H33.66V2.51a7.14,7.14,0,0,1-7.14,7.14H7.14A7.14,7.14,0,0,1,0,2.51Z" transform="matrix(0.993, -0.117, 0.117, 0.993, 0, 3.95)" fill="#fff"/>
      </g>
    </g>
    <g id="freepik--Character--inject-2" transform="translate(237.703 101.5)">
      <path id="Path_53" data-name="Path 53" d="M317.1,309.55l21.37-5.86,4.74,7.96-19.75,8.49Z" transform="translate(-208.069 -75.864)" fill="#ffb573"/>
      <path id="Path_54" data-name="Path 54" d="M344.5,315.35c.54,1.09.9,2.31.62,2.91a.88.88,0,0,1-.92.43,1.18,1.18,0,0,1-.81-.41c-1.13-1.26-.91-5.2-.9-5.37a.23.23,0,0,1,.16-.21.25.25,0,0,1,.26.09A17.658,17.658,0,0,1,344.5,315.35Zm-1,2.24a1.15,1.15,0,0,0,.25.37.63.63,0,0,0,.49.27c.34,0,.43-.09.47-.19.37-.69-.72-2.91-1.74-4.44a10.59,10.59,0,0,0,.52,3.99Z" transform="translate(-208.069 -75.651)" fill="#e84545"/>
      <path id="Path_55" data-name="Path 55" d="M342.92,312.82a.15.15,0,0,1,0,.09c.05,1.28-.8,4.34-1.88,4.65-.24.09-.62.06-1-.49a1.72,1.72,0,0,1-.22-1.33c.36-1.58,2.61-3,2.72-3.06a.24.24,0,0,1,.23,0A.25.25,0,0,1,342.92,312.82Zm-2.48,3.92.05.12c.22.36.38.31.44.3.62-.24,1.42-2.37,1.52-3.78a5.5,5.5,0,0,0-2.11,2.51A1.19,1.19,0,0,0,340.44,316.74Z" transform="translate(-208.069 -75.747)" fill="#e84545"/>
      <path id="Path_56" data-name="Path 56" d="M341.23,312.5l-4.78-9.58a.85.85,0,0,1,.23-1.05l6.93-5.62a1.43,1.43,0,0,1,2,.19,1.449,1.449,0,0,1,.17.26c1.66,3.48,3,6.65,5.16,10.94,2.53,5.07,2.5,3.48,5.56,9.41,1.84,3.57-1.92,6.26-2.88,4.84-4.36-6.54-6.82-6.21-10.66-7.65a3.51,3.51,0,0,1-1.73-1.74Z" transform="translate(-208.069 -75.979)" fill="#263238"/>
      <path id="Path_57" data-name="Path 57" d="M331.93,316.5l4.64-2-3.34-9.37-4.43,1.21Z" transform="translate(-208.069 -76.125)" opacity="0.1"/>
      <path id="Path_58" data-name="Path 58" d="M271.72,335.44l21.02,7.01-.49,9.25-21.13-3.92Z" transform="translate(-208.069 -71.858)" fill="#ffb573"/>
      <path id="Path_59" data-name="Path 59" d="M291.27,355.48c-.15,1.21-.53,2.43-1.1,2.77a.87.87,0,0,1-1-.15,1.18,1.18,0,0,1-.45-.79c-.24-1.68,2.13-4.83,2.23-5a.24.24,0,0,1,.26-.08.23.23,0,0,1,.16.21A16.842,16.842,0,0,1,291.27,355.48Zm-2.09,1.31a1.7,1.7,0,0,0,0,.45.66.66,0,0,0,.27.49c.26.21.41.16.5.11.69-.37,1-2.82,1-4.66A10.8,10.8,0,0,0,289.18,356.79Z" transform="translate(-208.069 -64.629)" fill="#e84545"/>
      <path id="Path_60" data-name="Path 60" d="M291.37,352.51a.291.291,0,0,1,0,.09c-.67,1.1-3.08,3.17-4.14,2.82-.26-.06-.56-.29-.54-.94a1.74,1.74,0,0,1,.55-1.23c1.18-1.11,3.84-1,4-1a.23.23,0,0,1,.2.13.29.29,0,0,1-.07.13Zm-4.25,1.87v.13c0,.42.14.47.2.5.65.14,2.5-1.18,3.36-2.3a5.59,5.59,0,0,0-3.15.91,1.3,1.3,0,0,0-.39.76Z" transform="translate(-208.069 -64.629)" fill="#e84545"/>
      <path id="Path_61" data-name="Path 61" d="M290.14,351.3l1.35-10.62a.86.86,0,0,1,.77-.75l8.89-.82a1.43,1.43,0,0,1,1.56,1.29,1.5,1.5,0,0,1,0,.3c-.55,3.82-1.19,7.2-1.79,12-.72,5.63.14,4.29-.61,10.91-.45,4-5.07,4.15-5.08,2.43,0-7.86-2.22-9-4.61-12.29a3.46,3.46,0,0,1-.48-2.45Z" transform="translate(-208.069 -64.629)" fill="#263238"/>
      <path id="Path_62" data-name="Path 62" d="M278.3,349.11l5.05.93,2.02-10.05-3.94-1.31Z" transform="translate(-208.069 -71.945)" opacity="0.1"/>
      <path id="Path_63" data-name="Path 63" d="M232.68,233.91s-8.88,15.67-19.88,52.67-3.67,49.67,31,58l33.33,5,2.67-12s-28.12-13.48-44.42-19.16a3.29,3.29,0,0,1-1.9-4.56c5.44-11.1,22.52-47.3,28.65-76.28Z" transform="translate(-208.069 -76.017)" fill="#e84545"/>
      <path id="Path_64" data-name="Path 64" d="M232.68,233.91s-8.88,15.67-19.88,52.67-3.67,49.67,31,58l33.33,5,2.67-12S251.42,324,235.15,318.34a3.07,3.07,0,0,1-1.77-4.27c5.32-10.84,22.58-47.32,28.75-76.49Z" transform="translate(-208.069 -76.017)" opacity="0.1"/>
      <path id="Path_65" data-name="Path 65" d="M279.24,335.75l-3.82,15s2,2.25,4.38,1.19l3.31-15.32a2.59,2.59,0,0,0-3.87-.87Z" transform="translate(-208.069 -71.81)" fill="#e84545"/>
      <path id="Path_66" data-name="Path 66" d="M279.24,335.75l-3.82,15s2,2.25,4.38,1.19l3.31-15.32a2.59,2.59,0,0,0-3.87-.87Z" transform="translate(-208.069 -71.81)" fill="#fff" opacity="0.6"/>
      <path id="Path_67" data-name="Path 67" d="M241.46,245.58c1.28,17.89,7.34,51,12.34,70.67s18.33,23.66,32.33,21,36.67-16,46.33-19l-4-13s-31.38,6.12-44.73,12.17a2.75,2.75,0,0,1-3.88-2.52c0-14.41-1-58.24-13.72-77.32L241.46,235S241.28,242.94,241.46,245.58Z" transform="translate(-208.069 -77.402)" fill="#e84545"/>
      <path id="Path_68" data-name="Path 68" d="M325.88,304.41l5.08,15.5a4.53,4.53,0,0,0,4-1.25l-5.08-15.33A3.1,3.1,0,0,0,325.88,304.41Z" transform="translate(-208.069 -75.905)" fill="#e84545"/>
      <path id="Path_69" data-name="Path 69" d="M325.88,304.41l5.08,15.5a4.53,4.53,0,0,0,4-1.25l-5.08-15.33A3.1,3.1,0,0,0,325.88,304.41Z" transform="translate(-208.069 -75.905)" fill="#fff" opacity="0.6"/>
      <path id="Path_70" data-name="Path 70" d="M246.3,173.41l-3-15.54a4.68,4.68,0,0,1,0-1.9l8-30.56,3.92-4.18a3.54,3.54,0,0,0,.83-2.27v-2.63a3.559,3.559,0,0,1,.18-1.13L257,113a3.52,3.52,0,0,0-2.28-4.48l-.48-.15a3.51,3.51,0,0,0-2.73.26l-4.62,2.51a3.53,3.53,0,0,0-1.83,2.93l-.41,9s-14,26-13.17,34.83,5,22.08,5,22.08A12.1,12.1,0,0,0,246.3,173.41Z" transform="translate(-208.069 -101.5)" fill="#ffb573"/>
      <path id="Path_71" data-name="Path 71" d="M288.3,182.25l14.83-9.67,11.34-29-1.12-5.16a2.79,2.79,0,0,1,.27-1.92l1.55-2.92a2.83,2.83,0,0,1,2.49-1.5H318a2.8,2.8,0,0,0,1.51-.44l1.73-1.09a2.82,2.82,0,0,1,4,1.06l2.51,6.62a2.82,2.82,0,0,1-.68,3.48l-5.59,5.54S315.8,176.74,312.8,180s-19.34,11.42-19.34,11.42Z" transform="translate(-208.069 -101.5)" fill="#ffb573"/>
      <path id="Path_72" data-name="Path 72" d="M251.3,180.91l-2.3-7.83s1.67-3.5-1.33-3.5A27.91,27.91,0,0,0,233.13,180s-1.5,3.26,1,3.42l2.5,11.5S251.46,188.75,251.3,180.91Z" transform="translate(-208.069 -92.596)" fill="#263238"/>
      <path id="Path_73" data-name="Path 73" d="M273.8,184.75s10.5-2.85,12.5-4.76c0,0,1.09-2.86,3.09-2.53s6.57,7.45,6.57,14.62c0,0,0,3.67-3,1.83,0,0-5.83,4.17-16.5,7.34C276.46,201.25,269.8,190.91,273.8,184.75Z" transform="translate(-208.069 -91.622)" fill="#263238"/>
      <path id="Path_74" data-name="Path 74" d="M259.61,186.38c4.38.6,8.75-.79,11.59-2a3.06,3.06,0,0,0,.45-1c-3.15-4.1-.93-11.69.92-16.81l-11.47,7.07c.39,4.27.18,6.7-6,7.19a4.38,4.38,0,0,0-1.2,1.31C254.53,184,256,185.89,259.61,186.38Z" transform="translate(-208.069 -93.149)" fill="#ffb573"/>
      <path id="Path_75" data-name="Path 75" d="M267.92,169.43l-6.75,4.24a16.581,16.581,0,0,1,.06,3c2.31,0,6.16-1.34,7-3.72a7.11,7.11,0,0,0-.31-3.52Z" transform="translate(-208.069 -93.151)" opacity="0.2"/>
      <path id="Path_76" data-name="Path 76" d="M267.18,142s-11.67-1.63-10.26,3.81S267.18,142,267.18,142Z" transform="translate(-208.069 -101.5)" fill="#263238"/>
      <path id="Path_77" data-name="Path 77" d="M267.18,142s-11.67-1.63-10.26,3.81S267.18,142,267.18,142Z" transform="translate(-208.069 -101.5)" opacity="0.5"/>
      <path id="Path_78" data-name="Path 78" d="M281.84,143.49c-.58-2.07-2-7.86,1-8.44,5.26-1,6.32,4.91,6.32,4.91s7.43-.13,2.77,6.75c0,0,2.94,5.62-3.32,5C284.91,151.29,282.53,145.91,281.84,143.49Z" transform="translate(-208.069 -101.5)" fill="#263238"/>
      <path id="Path_79" data-name="Path 79" d="M281.84,143.49c-.58-2.07-2-7.86,1-8.44,5.26-1,6.32,4.91,6.32,4.91s7.43-.13,2.77,6.75c0,0,2.94,5.62-3.32,5C284.91,151.29,282.53,145.91,281.84,143.49Z" transform="translate(-208.069 -101.5)" opacity="0.2"/>
      <path id="Path_80" data-name="Path 80" d="M280,143.33s3.18-2.68,5.56.8-2,6-2,6S282.38,145,280,143.33Z" transform="translate(-208.069 -101.5)" fill="#e84545"/>
      <path id="Path_81" data-name="Path 81" d="M273.41,169.66s1.8,4.69-.47,4.83S273.75,172.76,273.41,169.66Z" transform="translate(-208.069 -93.19)" fill="#263238"/>
      <path id="Path_82" data-name="Path 82" d="M280.89,158.58c-3.71,8.31-5.11,11.89-11,14.63-8.93,4.13-18.32-2.26-17.16-11.5,1.06-8.32,7-20.55,16.56-20.74a12.41,12.41,0,0,1,11.64,17.61Z" transform="translate(-208.069 -101.5)" fill="#ffb573"/>
      <path id="Path_83" data-name="Path 83" d="M258.69,152.78c-.27.7-.85,1.11-1.29.95s-.61-.88-.36-1.57.85-1.11,1.29-.93S258.94,152.09,258.69,152.78Z" transform="translate(-208.069 -101.5)" fill="#263238"/>
      <path id="Path_84" data-name="Path 84" d="M258.52,151.34,257,150.23S257.4,151.85,258.52,151.34Z" transform="translate(-208.069 -101.5)" fill="#263238"/>
      <path id="Path_85" data-name="Path 85" d="M259.43,156a19.809,19.809,0,0,1-4.14,3.49,3.26,3.26,0,0,0,2.3,1.39Z" transform="translate(-208.069 -101.5)" fill="#ed893e"/>
      <path id="Path_86" data-name="Path 86" d="M270.67,154.4a.44.44,0,0,1-.42-.3,5.13,5.13,0,0,0-3.09-2.7.43.43,0,0,1-.3-.54.42.42,0,0,1,.53-.29h0a5.93,5.93,0,0,1,3.67,3.27.43.43,0,0,1-.28.54h0a.19.19,0,0,1-.11.02Z" transform="translate(-208.069 -101.5)" fill="#263238"/>
      <path id="Path_87" data-name="Path 87" d="M257.67,148.05a.43.43,0,0,1,0-.84,4.23,4.23,0,0,1,3.88,1,.41.41,0,0,1,0,.59h0a.42.42,0,0,1-.6,0h0a3.5,3.5,0,0,0-3.06-.74A.36.36,0,0,1,257.67,148.05Z" transform="translate(-208.069 -101.5)" fill="#263238"/>
      <path id="Path_88" data-name="Path 88" d="M266.51,155.71c-.27.68-.85,1.11-1.29.95s-.61-.88-.36-1.57.85-1.11,1.3-1S266.72,155,266.51,155.71Z" transform="translate(-208.069 -101.5)" fill="#263238"/>
      <path id="Path_89" data-name="Path 89" d="M266.33,154.33l-1.48-1.11S265.22,154.79,266.33,154.33Z" transform="translate(-208.069 -101.5)" fill="#263238"/>
      <path id="Path_90" data-name="Path 90" d="M277.75,163.41a28.19,28.19,0,0,1-1.27-14.68s-15.08-.12-10.22-3.9c0,0-12.71-3.34-7.74-9.06S272.19,134,275.65,139c0,0,7.69,3.1,8.7,11.24,1.19,9.59-10.56,24.19-11.33,20.43C272.57,168.45,277.75,163.41,277.75,163.41Z" transform="translate(-208.069 -101.5)" fill="#263238"/>
      <path id="Path_91" data-name="Path 91" d="M280.74,166a6.53,6.53,0,0,1-4.4,2.31c-2.29.18-3-2-2-3.91.92-1.74,3.2-3.93,5.32-3.24a2.93,2.93,0,0,1,1.77,3.76,3,3,0,0,1-.69,1.08Z" transform="translate(-208.069 -94.183)" fill="#ffb573"/>
      <path id="Path_92" data-name="Path 92" d="M273.48,183.2a15.47,15.47,0,0,1-12.31,3.32c-5.62-1.08-6.3-4.49-6.17-6.52-10.51-.1-14.95,2.75-14.95,2.75C232.3,193.5,230.3,237,230.3,237c17.75,5.5,39.29,5.75,39.29,5.75C271.34,228,284,193,284,193S282.47,187,273.48,183.2Z" transform="translate(-208.069 -89.662)" fill="#263238"/>
      <path id="Path_93" data-name="Path 93" d="M253.08,179.62h2.93s-.71,4.29,4.66,5.29,12.3-2.46,12.3-2.46l2.95,1.38s-7.65,5.83-16.32,3.83S253.08,179.62,253.08,179.62Z" transform="translate(-208.069 -91.86)" fill="#263238"/>
      <path id="Path_94" data-name="Path 94" d="M253.08,179.62h2.93s-.71,4.29,4.66,5.29,12.3-2.46,12.3-2.46l2.95,1.38s-7.65,5.83-16.32,3.83S253.08,179.62,253.08,179.62Z" transform="translate(-208.069 -91.86)" fill="#fff" opacity="0.7"/>
      <path id="Path_95" data-name="Path 95" d="M265.87,108.3c-.09-.15-1.1-3.41,3.31-5.43s5.24-.11,7.84-1.37a13.94,13.94,0,0,1-4.71,6.49C268.61,110.9,266.24,108.9,265.87,108.3Z" transform="translate(-208.069 -101.5)"/>
      <path id="Path_96" data-name="Path 96" d="M255.38,118.59c-5.39,3.37-21.71,12-22.59,10.6s14-12.31,19.4-15.68,10.46-5,11.34-3.56S260.76,115.22,255.38,118.59Z" transform="translate(-208.069 -101.5)" fill="#e84545"/>
      <path id="Path_97" data-name="Path 97" d="M255.38,118.59c-5.39,3.37-21.71,12-22.59,10.6s14-12.31,19.4-15.68,10.46-5,11.34-3.56S260.76,115.22,255.38,118.59Z" transform="translate(-208.069 -101.5)" fill="#fff" opacity="0.4"/>
      <path id="Path_98" data-name="Path 98" d="M0,0H3.68V5.4a.81.81,0,0,1-.81.81h-2A.81.81,0,0,1,.06,5.4V0Z" transform="translate(57.749 4.864) rotate(57.95)" fill="#263238"/>
      <path id="Path_99" data-name="Path 99" d="M0,0H3.68V5.4a.81.81,0,0,1-.81.81h-2A.81.81,0,0,1,.06,5.4V0Z" transform="translate(57.749 4.864) rotate(57.95)" fill="#fff" opacity="0.5"/>
      <path id="Path_100" data-name="Path 100" d="M277,101.5c-2.6,1.26-3.43-.65-7.84,1.37a8.839,8.839,0,0,0-1.24.7.62.62,0,0,0-.1.81c.78,1,3.74-1.27,4.3-.56s-1.32,1.31-.63,2.24-.81,1.81-.15,2.58a8.067,8.067,0,0,0,.95-.65A13.94,13.94,0,0,0,277,101.5Z" transform="translate(-208.069 -101.5)" fill="#e84545"/>
      <path id="Path_101" data-name="Path 101" d="M333.06,121c-11.53-1.75-21.55,1.23-22.38,6.65-.47,3.09,6.55,3.94,11,6.46,3.37,1.91,3.41,5.79,8.38,6.54,11.53,1.75,21.55-1.23,22.37-6.65S344.6,122.76,333.06,121Zm-1.94,11.09c-2.66-.41-4.68-1.62-4.51-2.71s2.45-1.65,5.12-1.25,4.68,1.62,4.51,2.71-2.45,1.66-5.12,1.26Z" transform="translate(-208.069 -101.5)" fill="#e84545"/>
      <path id="Path_102" data-name="Path 102" d="M333.06,121c-11.53-1.75-21.55,1.23-22.38,6.65-.47,3.09,6.55,3.94,11,6.46,3.37,1.91,3.41,5.79,8.38,6.54,11.53,1.75,21.55-1.23,22.37-6.65S344.6,122.76,333.06,121Zm-1.94,11.09c-2.66-.41-4.68-1.62-4.51-2.71s2.45-1.65,5.12-1.25,4.68,1.62,4.51,2.71-2.45,1.66-5.12,1.26Z" transform="translate(-208.069 -101.5)" fill="#263238" opacity="0.9"/>
      <path id="Path_103" data-name="Path 103" d="M324.61,126c0,.85-1.47,1.54-3.29,1.54S318,126.84,318,126s1.47-1.55,3.29-1.55S324.61,125.13,324.61,126Z" transform="translate(-208.069 -101.5)" fill="#e84545"/>
      <path id="Path_104" data-name="Path 104" d="M324.61,126c0,.85-1.47,1.54-3.29,1.54S318,126.84,318,126s1.47-1.55,3.29-1.55S324.61,125.13,324.61,126Z" transform="translate(-208.069 -101.5)" fill="#fff" opacity="0.9"/>
      <path id="Path_105" data-name="Path 105" d="M334.3,122.84c0,.66-1.33,1.19-3,1.19s-3-.53-3-1.19,1.34-1.19,3-1.19S334.3,122.18,334.3,122.84Z" transform="translate(-208.069 -101.5)" fill="#e84545"/>
      <path id="Path_106" data-name="Path 106" d="M334.3,122.84c0,.66-1.33,1.19-3,1.19s-3-.53-3-1.19,1.34-1.19,3-1.19S334.3,122.18,334.3,122.84Z" transform="translate(-208.069 -101.5)" fill="#fff" opacity="0.7"/>
      <ellipse id="Ellipse_5" data-name="Ellipse 5" cx="3.87" cy="1.64" rx="3.87" ry="1.64" transform="translate(129.591 24.01)" fill="#e84545"/>
      <ellipse id="Ellipse_6" data-name="Ellipse 6" cx="3.87" cy="1.64" rx="3.87" ry="1.64" transform="translate(129.591 24.01)" fill="#fff" opacity="0.6"/>
      <path id="Path_107" data-name="Path 107" d="M348.61,134.74c0,.82-1.59,1.5-3.54,1.5s-3.54-.68-3.54-1.5,1.58-1.5,3.54-1.5S348.61,133.91,348.61,134.74Z" transform="translate(-208.069 -101.5)" fill="#e84545"/>
      <path id="Path_108" data-name="Path 108" d="M348.61,134.74c0,.82-1.59,1.5-3.54,1.5s-3.54-.68-3.54-1.5,1.58-1.5,3.54-1.5S348.61,133.91,348.61,134.74Z" transform="translate(-208.069 -101.5)" fill="#fff" opacity="0.8"/>
      <path id="Path_109" data-name="Path 109" d="M337.63,136.44c0,.95-1.7,1.71-3.8,1.71s-3.8-.76-3.8-1.71,1.7-1.7,3.8-1.7S337.63,135.5,337.63,136.44Z" transform="translate(-208.069 -101.5)" fill="#e84545"/>
      <path id="Path_110" data-name="Path 110" d="M337.63,136.44c0,.95-1.7,1.71-3.8,1.71s-3.8-.76-3.8-1.71,1.7-1.7,3.8-1.7S337.63,135.5,337.63,136.44Z" transform="translate(-208.069 -101.5)" fill="#fff" opacity="0.4"/>
      <path id="Path_111" data-name="Path 111" d="M316.37,133.24s3.81-3.06,6.31-3.14a1,1,0,0,1,1,1c0,.81-.12,1.93-.81,2.13a19,19,0,0,0-3.5,2Z" transform="translate(-208.069 -101.5)" fill="#ffb573"/>
      <path id="Path_112" data-name="Path 112" d="M236.94,196.48c.42-1.85,1.21-5.23,6-1.1s3.75-2.11,7.5-1.91-1.06,7.64-1.06,7.64,5.94-.61,5.88,3-7.7,2.21-7.7,2.21-3.56,10.68-6.8,6.85,2.13-8,1.27-11.46S236,200.81,236.94,196.48Z" transform="translate(-208.069 -89.678)" fill="#e84545"/>
      <path id="Path_113" data-name="Path 113" d="M236.94,196.48c.42-1.85,1.21-5.23,6-1.1s3.75-2.11,7.5-1.91-1.06,7.64-1.06,7.64,5.94-.61,5.88,3-7.7,2.21-7.7,2.21-3.56,10.68-6.8,6.85,2.13-8,1.27-11.46S236,200.81,236.94,196.48Z" transform="translate(-208.069 -89.678)" fill="#fff" opacity="0.8"/>
      <path id="Path_114" data-name="Path 114" d="M256.83,232.11c.44-2.36-1.51-7.64,1.74-9.44s3.05,6.41,6.14,4.72,4.1,1.47,2.77,4.72-3.7,3.75-2.77,6.75-1.89.34-6.14-1.66S256.38,234.53,256.83,232.11Z" transform="translate(-208.069 -86.098)" fill="#e84545"/>
      <path id="Path_115" data-name="Path 115" d="M256.83,232.11c.44-2.36-1.51-7.64,1.74-9.44s3.05,6.41,6.14,4.72,4.1,1.47,2.77,4.72-3.7,3.75-2.77,6.75-1.89.34-6.14-1.66S256.38,234.53,256.83,232.11Z" transform="translate(-208.069 -86.098)" opacity="0.2"/>
      <path id="Path_116" data-name="Path 116" d="M228.73,376.71a48.45,48.45,0,0,0,4.16,31.82c.21.43.91.17.7-.26a47.9,47.9,0,0,1-4.12-31.44C229.56,376.36,228.82,376.24,228.73,376.71Z" transform="translate(-208.069 -64.629)" fill="#e84545"/>
      <path id="Path_117" data-name="Path 117" d="M238,366.66a3.1,3.1,0,0,1-.76-.12,48.76,48.76,0,0,0-1.79,21.14c.06.47.81.45.75,0A48.121,48.121,0,0,1,238,366.66Z" transform="translate(-208.069 -64.629)" fill="#e84545"/>
      <path id="Path_118" data-name="Path 118" d="M241.87,356.23a51.559,51.559,0,0,0-2.66,5.17,2.19,2.19,0,0,1,.63.43,50.834,50.834,0,0,1,2.69-5.24C242.78,356.17,242.12,355.81,241.87,356.23Z" transform="translate(-208.069 -64.629)" fill="#e84545"/>
      <path id="Path_119" data-name="Path 119" d="M256.74,163.29s2.23-.48,8.45-.13c-.74,2.16-2.11,3.86-5.3,3.68a3.26,3.26,0,0,1-3.14-3.24A3.086,3.086,0,0,1,256.74,163.29Z" transform="translate(-208.069 -94.023)" fill="#263238"/>
      <path id="Path_120" data-name="Path 120" d="M261.37,165.17a5,5,0,0,0-3.48.88,3.26,3.26,0,0,0,2,.77,5,5,0,0,0,3.48-.89,3.11,3.11,0,0,0-2-.76Z" transform="translate(-208.069 -93.821)" fill="#a02724"/>
      <path id="Path_121" data-name="Path 121" d="M257,163.25a1.54,1.54,0,0,0,1,1.14,28.258,28.258,0,0,0,5.52-.26,1.68,1.68,0,0,0,1.4-1,44.231,44.231,0,0,0-7.92.12Z" transform="translate(-208.069 -94.085)" fill="#fff"/>
    </g>
    <g id="freepik--Music--inject-2" transform="translate(255.266 184.217)">
      <path id="Path_122" data-name="Path 122" d="M319.16,198.43,305.87,202l1,19.18a8.59,8.59,0,0,0-2.92.32c-3,.83-5.44,2.89-5.35,4.61s2.64,2.45,5.68,1.63,5.44-2.9,5.35-4.62c-.25-4.68-.94-18-.94-18l8.44-2.3Z" transform="translate(-222.19 -167)" fill="#e84545"/>
      <path id="Path_123" data-name="Path 123" d="M366.75,206.06l-7.81,2.12.59,11.28a5.09,5.09,0,0,0-1.72.18c-1.79.49-3.19,1.7-3.14,2.72s1.55,1.44,3.34.95,3.19-1.7,3.14-2.71c-.14-2.75-.55-10.57-.55-10.57l5-1.34Z" transform="translate(-222.19 -167)" fill="#e84545"/>
      <path id="Path_124" data-name="Path 124" d="M237.46,214.88l-9.85,2.68.74,14.22a6.531,6.531,0,0,0-2.16.23c-2.25.62-4,2.15-4,3.43s2,1.81,4.21,1.2,4-2.15,4-3.42c-.18-3.47-.7-13.32-.7-13.32l6.27-1.7Z" transform="translate(-222.19 -167)" fill="#e84545"/>
      <path id="Path_125" data-name="Path 125" d="M237.46,214.88l-9.85,2.68.74,14.22a6.531,6.531,0,0,0-2.16.23c-2.25.62-4,2.15-4,3.43s2,1.81,4.21,1.2,4-2.15,4-3.42c-.18-3.47-.7-13.32-.7-13.32l6.27-1.7Z" transform="translate(-222.19 -167)" fill="#fff" opacity="0.2"/>
      <path id="Path_126" data-name="Path 126" d="M318.4,224.34l1.21,23a10.61,10.61,0,0,0-3.5.38c-3.64,1-6.51,3.47-6.41,5.54s3.16,2.93,6.81,1.94,6.51-3.47,6.41-5.53c-.3-5.61-1.13-21.53-1.13-21.53l16.32-4.44,1,18.35a10.64,10.64,0,0,0-3.5.39c-3.65,1-6.52,3.47-6.41,5.53s3.16,2.93,6.8,1.94,6.52-3.47,6.41-5.53c-.29-5.61-1.37-26.17-1.37-26.17Z" transform="translate(-222.19 -167)" fill="#e84545"/>
      <path id="Path_127" data-name="Path 127" d="M323.42,170l.6,11.45a5,5,0,0,0-1.74.19c-1.81.49-3.24,1.72-3.19,2.75s1.57,1.46,3.39,1,3.25-1.73,3.19-2.76c-.14-2.79-.56-10.72-.56-10.72l8.13-2.21.48,9.14A5.21,5.21,0,0,0,332,179c-1.82.5-3.25,1.73-3.2,2.76s1.57,1.46,3.39,1,3.25-1.73,3.19-2.76c-.14-2.79-.68-13-.68-13Z" transform="translate(-222.19 -167)" fill="#e84545"/>
      <path id="Path_128" data-name="Path 128" d="M323.42,170l.6,11.45a5,5,0,0,0-1.74.19c-1.81.49-3.24,1.72-3.19,2.75s1.57,1.46,3.39,1,3.25-1.73,3.19-2.76c-.14-2.79-.56-10.72-.56-10.72l8.13-2.21.48,9.14A5.21,5.21,0,0,0,332,179c-1.82.5-3.25,1.73-3.2,2.76s1.57,1.46,3.39,1,3.25-1.73,3.19-2.76c-.14-2.79-.68-13-.68-13Z" transform="translate(-222.19 -167)" opacity="0.2"/>
      <ellipse id="Ellipse_7" data-name="Ellipse 7" cx="24.15" cy="12.79" rx="24.15" ry="12.79" transform="translate(73.167 103.745) rotate(-10.9)" fill="#e84545"/>
      <path id="Path_129" data-name="Path 129" d="M330.28,288.47l-8.79-9.73L316.94,291a41.061,41.061,0,0,0,13.34-2.57Z" transform="translate(-222.19 -167)" fill="#fff"/>
      <path id="Path_130" data-name="Path 130" d="M326,266.44a40.784,40.784,0,0,0-6.78.73A39.821,39.821,0,0,0,312.7,269l8.79,9.73Z" transform="translate(-222.19 -167)" fill="#fff"/>
      <path id="Path_131" data-name="Path 131" d="M313.48,291l8-12.21-18.41,9a16.17,16.17,0,0,0,4.53,2.13A27,27,0,0,0,313.48,291Z" transform="translate(-222.19 -167)" fill="#263238"/>
      <path id="Path_132" data-name="Path 132" d="M339.9,269.71a15.891,15.891,0,0,0-4.53-2.13,27,27,0,0,0-5.87-1.05l-8,12.21Z" transform="translate(-222.19 -167)" fill="#263238"/>
      <path id="Path_133" data-name="Path 133" d="M328.81,277.33c.41,2.14-2.53,4.51-6.57,5.28s-7.66-.32-8.07-2.46,2.53-4.51,6.57-5.29S328.4,275.19,328.81,277.33Z" transform="translate(-222.19 -167)" fill="#e84545"/>
      <path id="Path_134" data-name="Path 134" d="M328.81,277.33c.41,2.14-2.53,4.51-6.57,5.28s-7.66-.32-8.07-2.46,2.53-4.51,6.57-5.29S328.4,275.19,328.81,277.33Z" transform="translate(-222.19 -167)" opacity="0.3"/>
      <path id="Path_135" data-name="Path 135" d="M322.89,278.47c.08.41-.49.86-1.26,1s-1.46-.06-1.54-.47.49-.86,1.26-1S322.81,278.06,322.89,278.47Z" transform="translate(-222.19 -167)" fill="#fff"/>
      <ellipse id="Ellipse_8" data-name="Ellipse 8" cx="7.41" cy="13.99" rx="7.41" ry="13.99" transform="translate(132.974 81.661) rotate(-72.44)" fill="#e84545"/>
      <path id="Path_136" data-name="Path 136" d="M372.54,253.19l-1.8-7.38-5.71,5a24.762,24.762,0,0,0,3.66,1.5A23.309,23.309,0,0,0,372.54,253.19Z" transform="translate(-222.19 -167)" fill="#fff"/>
      <path id="Path_137" data-name="Path 137" d="M376.46,240.8a24.759,24.759,0,0,0-3.66-1.5,23.312,23.312,0,0,0-3.85-.87l1.79,7.38Z" transform="translate(-222.19 -167)" fill="#fff"/>
      <path id="Path_138" data-name="Path 138" d="M363.29,249.82l7.45-4-11.86-.48a9.281,9.281,0,0,0,1.72,2.33,15.8,15.8,0,0,0,2.69,2.15Z" transform="translate(-222.19 -167)" fill="#263238"/>
      <path id="Path_139" data-name="Path 139" d="M382.61,246.29a9.28,9.28,0,0,0-1.72-2.33,16.312,16.312,0,0,0-2.69-2.16l-7.46,4Z" transform="translate(-222.19 -167)" fill="#263238"/>
      <path id="Path_140" data-name="Path 140" d="M374.86,247.11c-.38,1.21-2.53,1.6-4.8.88s-3.81-2.28-3.43-3.48,2.53-1.6,4.8-.88S375.24,245.91,374.86,247.11Z" transform="translate(-222.19 -167)" fill="#e84545"/>
      <path id="Path_141" data-name="Path 141" d="M374.86,247.11c-.38,1.21-2.53,1.6-4.8.88s-3.81-2.28-3.43-3.48,2.53-1.6,4.8-.88S375.24,245.91,374.86,247.11Z" transform="translate(-222.19 -167)" opacity="0.3"/>
      <path id="Path_142" data-name="Path 142" d="M371.53,246.06c-.07.23-.48.3-.92.17s-.72-.44-.65-.67.48-.3.92-.17S371.6,245.83,371.53,246.06Z" transform="translate(-222.19 -167)" fill="#fff"/>
    </g>
  </g>
</svg>
